<?xml version="1.0" standalone="no"?>
<!DOCTYPE svg PUBLIC "-//W3C//DTD SVG 20010904//EN"
 "http://www.w3.org/TR/2001/REC-SVG-20010904/DTD/svg10.dtd">
<svg version="1.0" xmlns="http://www.w3.org/2000/svg"
 width="908.000000pt" height="908.000000pt" viewBox="0 0 908.000000 908.000000"
 preserveAspectRatio="xMidYMid meet">
<metadata>
Created by potrace 1.14, written by Peter Selinger 2001-2017
</metadata>
<g transform="translate(0.000000,908.000000) scale(0.100000,-0.100000)"
fill="#000000" stroke="none">
<path d="M1501 9035 c-244 -69 -396 -308 -347 -545 22 -104 59 -174 130 -243
55 -54 206 -142 1491 -870 787 -445 1447 -815 1469 -823 109 -39 247 -37 344
6 24 11 508 283 1076 604 568 322 1040 588 1049 592 16 6 17 -71 15 -1066 l-3
-1072 -1300 -752 c-1433 -829 -1371 -789 -1442 -932 l-38 -78 -3 -1249 c-2
-1163 -3 -1249 -19 -1243 -9 4 -425 243 -925 532 l-908 526 0 1492 c0 1029 -3
1511 -11 1552 -41 223 -235 383 -465 384 -178 0 -339 -99 -419 -259 -57 -113
-55 -45 -55 -1826 0 -1804 -3 -1716 62 -1837 61 -115 95 -140 614 -440 264
-152 909 -525 1433 -829 525 -303 978 -560 1006 -570 121 -42 240 -34 362 26
113 56 191 142 237 265 21 55 21 62 26 1568 l5 1514 1299 751 c1388 804 1366
790 1428 904 61 112 58 9 58 1848 0 1841 4 1719 -57 1839 -33 65 -125 157
-191 190 -124 63 -270 72 -388 24 -32 -13 -636 -352 -1342 -752 l-1284 -727
-1296 734 c-713 404 -1319 742 -1347 752 -70 24 -197 29 -264 10z"/>
</g>
</svg>
